<svg height="128" width="128" xmlns="http://www.w3.org/2000/svg"><linearGradient id="b" gradientUnits="userSpaceOnUse" x1="20" x2="20" y1="28" y2="96"><stop offset="0" stop-color="#acaba8"/><stop offset="1" stop-color="#cac9c6"/></linearGradient><linearGradient id="a" gradientUnits="userSpaceOnUse" x1="12" x2="116" y1="68" y2="68"><stop offset="0" stop-color="#9a9996"/><stop offset=".037" stop-color="#deddda"/><stop offset=".077" stop-color="#9a9996"/><stop offset=".923" stop-color="#9a9996"/><stop offset=".962" stop-color="#deddda"/><stop offset="1" stop-color="#9a9996"/></linearGradient><linearGradient id="c" gradientUnits="userSpaceOnUse" x1="52.68" x2="52" y1="80" y2="40"><stop offset="0" stop-color="#f6f5f4"/><stop offset="1" stop-color="#deddda"/></linearGradient><g stroke-width="4"><rect height="68" ry="8" width="104" x="12" y="40"/><rect fill="url(#a)" height="68" ry="8" width="104" x="12" y="32"/><rect fill="url(#b)" height="68" ry="8" width="104" x="12" y="28"/><g fill="#77767b"><rect height="4" ry="2" width="4" x="108" y="88"/><rect height="4" ry="2" width="4" x="108" y="32"/><rect height="4" ry="2" width="4" x="52" y="32"/><rect height="4" ry="2" width="4" x="20" y="32"/><rect height="4" ry="2" width="4" x="20" y="88"/><rect height="4" ry="2" width="4" x="52" y="88"/></g><path d="M32 36a4 4 0 0 0-4 4c0 2.256-1.744 4-4 4a4 4 0 0 0-4 4v32a4 4 0 0 0 4 4c2.256 0 4 1.744 4 4a4 4 0 0 0 4 4h12a4 4 0 0 0 4-4c0-2.252 1.74-3.996 3.992-4l.124.008a4 4 0 0 0 .56-.008h6.568c5.14 4.812 11.844 7.996 18.896 8 7.332 0 14.616-3.02 19.8-8.2s8.2-12.468 8.2-19.8-3.02-14.612-8.2-19.8A28.336 28.336 0 0 0 78.136 36a4 4 0 0 0-.008 0c-7.04.012-13.728 3.196-18.868 8H52c-2.256 0-4-1.744-4-4a4 4 0 0 0-4-4z" fill="#acaba8"/><path d="M32 32a4 4 0 0 0-4 4c0 2.256-1.744 4-4 4a4 4 0 0 0-4 4v32a4 4 0 0 0 4 4c2.256 0 4 1.744 4 4a4 4 0 0 0 4 4h12a4 4 0 0 0 4-4c0-2.252 1.74-3.996 3.992-4l.124.008a4 4 0 0 0 .56-.008h6.568c5.14 4.812 11.844 7.996 18.896 8 7.332 0 14.616-3.02 19.8-8.2s8.2-12.468 8.2-19.8-3.02-14.612-8.2-19.8A28.336 28.336 0 0 0 78.136 32a4 4 0 0 0-.008 0c-7.04.012-13.728 3.196-18.868 8H52c-2.256 0-4-1.744-4-4a4 4 0 0 0-4-4z" fill="url(#c)"/><rect fill="#adaba7" fill-opacity=".996" height="16" ry="8" width="16" x="72" y="48"/><rect fill="#cac9c6" fill-opacity=".996" height="16" ry="8" width="16" x="72" y="52"/><path d="M57 44l8-8h24l8 8v8h8L93 64 81 52h8v-8H65v8h-8zm40 32l-8 8H65l-8-8v-8h-8l12-12 12 12h-8v8h24v-8h8z" fill="#3d3846"/></g></svg>